<svg id="Layer_1" data-name="Layer 1" xmlns="http://www.w3.org/2000/svg" xmlns:xlink="http://www.w3.org/1999/xlink" viewBox="0 0 562.53 548.78" width="200" height="100" class="illustration styles_illustrationTablet__1DWOa"><defs><linearGradient id="linear-gradient" x1="168.84" y1="495.22" x2="52.44" y2="283.43" gradientUnits="userSpaceOnUse"><stop offset="0" stop-color="#010101" stop-opacity="0"></stop><stop offset="0.95" stop-color="#010101"></stop></linearGradient><linearGradient id="linear-gradient-2" x1="307.63" y1="338.58" x2="306.77" y2="735.47" xlink:href="#linear-gradient"></linearGradient><linearGradient id="linear-gradient-3" x1="268.24" y1="243.83" x2="428.03" y2="201.74" xlink:href="#linear-gradient"></linearGradient><linearGradient id="linear-gradient-4" x1="267.21" y1="215.58" x2="350.54" y2="365.92" gradientUnits="userSpaceOnUse"><stop offset="0" stop-color="#fff" stop-opacity="0"></stop><stop offset="0.13" stop-color="#fff" stop-opacity="0.23"></stop><stop offset="0.23" stop-color="#fff" stop-opacity="0.41"></stop><stop offset="0.35" stop-color="#fff" stop-opacity="0.59"></stop><stop offset="0.48" stop-color="#fff" stop-opacity="0.74"></stop><stop offset="0.6" stop-color="#fff" stop-opacity="0.85"></stop><stop offset="0.72" stop-color="#fff" stop-opacity="0.93"></stop><stop offset="0.84" stop-color="#fff" stop-opacity="0.98"></stop><stop offset="0.95" stop-color="#fff"></stop></linearGradient><linearGradient id="linear-gradient-5" x1="269.68" y1="214.21" x2="353.01" y2="364.55" xlink:href="#linear-gradient-4"></linearGradient><linearGradient id="linear-gradient-6" x1="271.93" y1="212.97" x2="355.26" y2="363.31" xlink:href="#linear-gradient-4"></linearGradient><linearGradient id="linear-gradient-7" x1="278.01" y1="209.6" x2="361.34" y2="359.93" xlink:href="#linear-gradient-4"></linearGradient><linearGradient id="linear-gradient-8" x1="350.83" y1="373.5" x2="307.24" y2="349.02" xlink:href="#linear-gradient"></linearGradient><linearGradient id="linear-gradient-9" x1="319.6" y1="334.9" x2="315.88" y2="284.79" xlink:href="#linear-gradient"></linearGradient><linearGradient id="linear-gradient-10" x1="278.9" y1="387.75" x2="269.74" y2="355.1" xlink:href="#linear-gradient"></linearGradient><linearGradient id="linear-gradient-11" x1="314.23" y1="317.38" x2="236.63" y2="329.69" xlink:href="#linear-gradient"></linearGradient><linearGradient id="linear-gradient-12" x1="285.67" y1="205.35" x2="369" y2="355.69" xlink:href="#linear-gradient-4"></linearGradient><linearGradient id="linear-gradient-13" x1="290.76" y1="202.53" x2="374.09" y2="352.87" xlink:href="#linear-gradient-4"></linearGradient><linearGradient id="linear-gradient-14" x1="297.18" y1="198.97" x2="380.5" y2="349.31" xlink:href="#linear-gradient-4"></linearGradient><linearGradient id="linear-gradient-15" x1="317.28" y1="258.18" x2="385.02" y2="177.3" xlink:href="#linear-gradient"></linearGradient><linearGradient id="linear-gradient-16" x1="307.2" y1="193.42" x2="390.53" y2="343.76" xlink:href="#linear-gradient-4"></linearGradient><linearGradient id="linear-gradient-17" x1="304.67" y1="194.82" x2="388" y2="345.15" xlink:href="#linear-gradient-4"></linearGradient><linearGradient id="linear-gradient-18" x1="301.85" y1="196.38" x2="385.18" y2="346.72" xlink:href="#linear-gradient-4"></linearGradient><linearGradient id="linear-gradient-19" x1="299.23" y1="197.84" x2="382.56" y2="348.17" xlink:href="#linear-gradient-4"></linearGradient><linearGradient id="linear-gradient-20" x1="296.52" y1="199.34" x2="379.85" y2="349.67" xlink:href="#linear-gradient-4"></linearGradient><linearGradient id="linear-gradient-21" x1="269.4" y1="244.6" x2="303.27" y2="114.28" xlink:href="#linear-gradient"></linearGradient><linearGradient id="linear-gradient-22" x1="251.58" y1="113.35" x2="258.03" y2="234.26" xlink:href="#linear-gradient-4"></linearGradient><linearGradient id="linear-gradient-23" x1="342.59" y1="144.22" x2="138.56" y2="210.8" xlink:href="#linear-gradient"></linearGradient><linearGradient id="linear-gradient-24" x1="270.85" y1="144.69" x2="329.04" y2="277.98" xlink:href="#linear-gradient"></linearGradient><clipPath id="clip-path" transform="translate(-14.33 73.96)"><path d="M207,175.08c-4.68,43.1-1.81,87.08-10.8,129.5-3.36,15.86-8.89,32.22-21.16,42.83-7.21,6.23-16.23,10-25.39,12.62-26.28,7.54-54.16,6.4-81.47,5.19-4.31-.19-9-.53-12.22-3.42-2.58-2.33-3.67-5.85-4.57-9.21a244.92,244.92,0,0,1-3-113.75c3-13.89,7.12-27.56,8.75-41.67,1.79-15.52.49-31.42,4.09-46.62C69.22,116.81,99.62,93,131,78.16s65.61-23.7,94.85-42.33c14.64-9.32,28.26-21.19,45.06-25.57S305.76,9.69,322,16s31.49,15.14,47.85,21.23c15.79,5.88,32.41,9.16,48.62,13.77C455.94,61.7,493,81.15,513.61,114.19c16.65,26.7,20.81,59.49,19.3,90.92s-8.24,62.37-11.64,93.65c-.91,8.32-1.7,17-6.2,24.09-3.38,5.3-8.58,9.17-13.9,12.52-36.19,22.78-81.31,25.88-124,23.32-3.41-.2-6.95-.47-9.95-2.1a18.64,18.64,0,0,1-6.31-6.36c-10.22-15.5-8.75-35.6-7.58-54.13A755.33,755.33,0,0,0,351,172.45c-.63-6.19-1.35-12.43-3.44-18.29-8.46-23.63-36.16-34-61.11-36.83-20.95-2.35-39.82,1-57.68,12.24C211.87,140.24,209.17,155.44,207,175.08Z" fill="none"></path></clipPath><linearGradient id="linear-gradient-25" x1="403" y1="336.68" x2="531.53" y2="504.49" xlink:href="#linear-gradient-4"></linearGradient><linearGradient id="linear-gradient-26" x1="142.53" y1="315.23" x2="97.9" y2="566.05" xlink:href="#linear-gradient-4"></linearGradient><linearGradient id="linear-gradient-27" x1="77.98" y1="371.88" x2="86.9" y2="530.76" xlink:href="#linear-gradient"></linearGradient><linearGradient id="linear-gradient-28" x1="391.99" y1="351.67" x2="282.49" y2="488.53" xlink:href="#linear-gradient-4"></linearGradient><linearGradient id="linear-gradient-29" x1="408.07" y1="364.53" x2="298.57" y2="501.4" xlink:href="#linear-gradient-4"></linearGradient><linearGradient id="linear-gradient-30" x1="121.82" y1="407.49" x2="150.38" y2="583.34" xlink:href="#linear-gradient"></linearGradient><linearGradient id="linear-gradient-31" x1="114.06" y1="356.1" x2="109" y2="493.86" xlink:href="#linear-gradient"></linearGradient><linearGradient id="linear-gradient-32" x1="133.63" y1="422.99" x2="89.48" y2="391.54" xlink:href="#linear-gradient"></linearGradient><linearGradient id="linear-gradient-33" x1="136.88" y1="389.09" x2="131.04" y2="444.12" xlink:href="#linear-gradient"></linearGradient><linearGradient id="linear-gradient-34" x1="110.88" y1="337.66" x2="121.15" y2="495.66" xlink:href="#linear-gradient"></linearGradient><linearGradient id="linear-gradient-35" x1="91.28" y1="396.75" x2="149.85" y2="396.75" xlink:href="#linear-gradient-4"></linearGradient><linearGradient id="linear-gradient-36" x1="101.97" y1="365.52" x2="82.82" y2="485.26" xlink:href="#linear-gradient"></linearGradient><linearGradient id="linear-gradient-37" x1="137.41" y1="393.67" x2="103.14" y2="440.03" xlink:href="#linear-gradient"></linearGradient><linearGradient id="linear-gradient-38" x1="125.36" y1="439.7" x2="-406.22" y2="412.4" xlink:href="#linear-gradient"></linearGradient></defs><title>Rain</title><path d="M543.33,326.88A138.31,138.31,0,0,1,537,365c-19.18,59.41-88.07,110.14-290.2,78.85-28.69-4.44-54.94,20.07-83.32,26.75a155.15,155.15,0,0,1-52.27,3.33C86,471.25,61,462,42.37,444.46S12,400.68,14.73,374.62A80.29,80.29,0,0,1,16.34,365c.07-.22.1-.47.16-.69,6.69-28.5,26.5-54.09,27-83.51.22-14-4.06-27.55-7-41.18-7.61-34.59-6.56-73,11.86-103.22,21-34.49,60.17-52,97.77-64.23,18.42-6,37.31-11.38,53.76-21.91,13-8.3,24.29-19.71,38.52-25.29,19.88-7.8,41.94-33.48,217.73,41.4,33,14,59,45.68,68.23,81.32,6.08,23.58,3.39,48.44,3.8,73,.06,3.21.16,6.41.35,9.61.09,1.87.25,3.74.41,5.61.22,2.47,1.56,7.36,3.36,14.05,1.59,5.92,3.52,13.28,5.36,21.62,1,4.53,1.93,9.38,2.76,14.45,1.11,6.72,2,13.86,2.57,21.24A184.91,184.91,0,0,1,543.33,326.88Z" transform="translate(-14.33 73.96)" fill="#68e1fd" opacity="0.24" style="isolation: isolate;"></path><path d="M537.56,271.56c-17.28,6.24-92.92,36.61-97.68,94.34h-70.5s28.85-112.19,157.4-150.27l1.3,5,2.38,9.07c-.7.19-1.36.35-2,.54.09,1.87.25,3.74.41,5.61.22,2.47,1.56,7.36,3.36,14.05C533.79,255.86,535.72,263.22,537.56,271.56Z" transform="translate(-14.33 73.96)" fill="#68e1fd" opacity="0.24" style="isolation: isolate;"></path><path d="M540.32,286c-23.62,8-90.67,35.19-95.08,88.8h-70.5s.85-3.3,2.88-8.91c9.8-26.72,46.95-106.14,150.81-135.62.09,1.87.25,3.74.41,5.61.22,2.47,1.56,7.36,3.36,14.05,1.59,5.92,3.52,13.28,5.36,21.62C538.54,276.09,539.49,280.94,540.32,286Z" transform="translate(-14.33 73.96)" fill="#68e1fd" opacity="0.24" style="isolation: isolate;"></path><path d="M542.89,307.25c-28.5,13-76.63,41.56-80.37,87.22H392a144.56,144.56,0,0,1,7.2-19.66c1.17-2.76,2.54-5.74,4.09-8.91,16.36-33.41,53.35-87.81,128.93-116,1.59,5.92,3.52,13.28,5.36,21.62,1,4.53,1.93,9.38,2.76,14.45C541.43,292.73,542.35,299.87,542.89,307.25Z" transform="translate(-14.33 73.96)" fill="#68e1fd" opacity="0.24" style="isolation: isolate;"></path><path d="M537,365c-19.18,59.41-88.07,110.14-290.2,78.85-25.36-3.93-48.82,14.77-73.52,23.77a82.91,82.91,0,0,1-9.8,3,155.52,155.52,0,0,1-27.8,4,157.34,157.34,0,0,1-24.47-.67c-23.62-2.5-47-10.84-65.28-26.34-1.08-.92-2.19-1.87-3.23-2.85a3,3,0,0,1-.35-.29,86.66,86.66,0,0,1-6.94-7.26,90.87,90.87,0,0,1-15-24.66v0a79.21,79.21,0,0,1-5.67-37.88A80.29,80.29,0,0,1,16.34,365Z" transform="translate(-14.33 73.96)" fill="#68e1fd"></path><path d="M218,405.59A175.09,175.09,0,0,0,195.87,435c-7,11.73-13.72,25.23-26.37,30.37,2.66-.76,5.32-1.52,8-2.31a49,49,0,0,1-4.22,4.62,82.91,82.91,0,0,1-9.8,3,155.52,155.52,0,0,1-27.8,4,157.34,157.34,0,0,1-24.47-.67c-25-2.66-49.87-11.85-68.51-29.19,2.92-6.95,7.83-13.83,11.54-18.93,8.27-11.51,21.84-18.45,35.5-21.21,16.36-3.3,33.29-1.49,49.94-.28A686,686,0,0,0,218,405.59Z" transform="translate(-14.33 73.96)" fill="url(#linear-gradient)"></path><path d="M248.34,381.64c-2.06,1-4.37,2.6-4.3,4.9.05,2.13,2.16,3.58,4.12,4.44,7.54,3.29,16.08,3.24,24.3,2.82,10.74-.55,21.46-1.64,32.09-3.25a48.71,48.71,0,0,1,8-.79,61,61,0,0,1,9.76,1.38,86.43,86.43,0,0,0,46-4.5,5.47,5.47,0,0,0,1.52-.78c1.51-1.19,1.46-3.64.35-5.21a9.13,9.13,0,0,0-4.8-3c-4.37-1.41-9-1.72-13.61-2q-28.31-1.78-56.64-2.85c-7.77-.3-16.3-1.72-23.79.53C263.54,375.65,255.69,378,248.34,381.64Z" transform="translate(-14.33 73.96)" fill="url(#linear-gradient-2)"></path><path d="M335.89,284.31a12.11,12.11,0,0,0-.29,3.11,4.07,4.07,0,0,0,1.28,2.76,7.4,7.4,0,0,1,.82.66c.75.81.55,2.09.5,3.21s.38,2.52,1.49,2.63a2.48,2.48,0,0,0,1.35-.39c1.72-.89,3.5-2,4.37-3.71a8.57,8.57,0,0,0,.38-5.33,25.71,25.71,0,0,0-1.48-5.08,1.19,1.19,0,0,0-.4-.58,1.16,1.16,0,0,0-.64-.13,13.93,13.93,0,0,0-5.61,1.2" transform="translate(-14.33 73.96)" fill="#c8a59c"></path><path d="M280.43,233.89a10.39,10.39,0,0,1-2.71-4.67,12.08,12.08,0,0,0-2.4-5.83c-1.58-2-4.91-4.95-7.7-3.84a5.11,5.11,0,0,0-2.25,2.12,8.57,8.57,0,0,0-1.2,2.4c-.69,2.45.43,5.09,2,7.05a43,43,0,0,0,4.1,4,20.94,20.94,0,0,0,3.56,3.17" transform="translate(-14.33 73.96)" fill="#c8a59c"></path><path d="M314.57,240.84s-5.41,6.22-11.11,11.83c-.37.39-.77.77-1.15,1.14-3.4,3.28-6.75,6.18-9,7.26-.45.21-18.23-20.18-18.23-20.18-5.59-6.07,3.11-10.41,3.11-10.41L293.31,240l1.05-1.42,6.58-8.93,1-1.32L317.58,207Z" transform="translate(-14.33 73.96)" fill="#68e1fd"></path><path d="M314.57,240.84s-5.41,6.22-11.11,11.83c-.37.39-.77.77-1.15,1.14-3.4,3.28-6.75,6.18-9,7.26-.45.21-18.23-20.18-18.23-20.18-5.59-6.07,3.11-10.41,3.11-10.41L293.31,240l1.05-1.42,6.58-8.93,1-1.32L317.58,207Z" transform="translate(-14.33 73.96)" fill="url(#linear-gradient-3)"></path><path d="M278.44,244.6c-.44-.37-1.24-1.47-1.63-1.81a94.07,94.07,0,0,1,4.1-10.54l1.56,1A69.25,69.25,0,0,0,278.44,244.6Z" transform="translate(-14.33 73.96)" fill="url(#linear-gradient-4)"></path><path d="M285.58,252.76c-.43-.35-1.39-1.35-1.82-1.7-.59-3.46,1.91-11.15,3.54-14.72l1.4.74C287,240.74,285.48,248.84,285.58,252.76Z" transform="translate(-14.33 73.96)" fill="url(#linear-gradient-5)"></path><path d="M292.51,260.38c-.42-.16-1.72-2-1.83-2,.56-4.94.23-14.48,1.21-19.18l1.34.71C292.27,244.6,293.05,255.43,292.51,260.38Z" transform="translate(-14.33 73.96)" fill="url(#linear-gradient-6)"></path><path d="M303.46,252.67c-.37.39-.77.77-1.15,1.14a88.76,88.76,0,0,1-9-13.82l1.05-1.42A87.83,87.83,0,0,0,303.46,252.67Z" transform="translate(-14.33 73.96)" fill="url(#linear-gradient-7)"></path><path d="M310.68,239.14a101.62,101.62,0,0,1-9.74-9.5l1-1.32a99.16,99.16,0,0,0,9.83,9.61C312.54,238.61,311.47,239.81,310.68,239.14Z" transform="translate(-14.33 73.96)" fill="#75b1b0"></path><path d="M306.37,192.4c-3.45,1.47-6.3,4-7.07,7.39-.58,2.51.82,4.72.56,7.2-.31,3-2.5,5.21-4.25,7.45-3.83,4.89-4.73,11.93,1.73,15.32a11.19,11.19,0,0,0,11.71-1.24c3.16-2.42,3.55-6.53,5.77-9.6,2.42-3.36,5.73-5.44,7.18-9.5,1.88-5.23,2.44-14.22-3.38-17.24C315.29,190.46,310.41,190.68,306.37,192.4Z" transform="translate(-14.33 73.96)" fill="#606161"></path><path d="M341.57,354.6l-.13.49-.12-.58Z" transform="translate(-14.33 73.96)" fill="#b3d8dc"></path><path d="M351.12,366.9A20.49,20.49,0,0,1,346,375a8.61,8.61,0,0,1-2.26,3.12c-3.69,3-11,1.64-9.27-.95a47.28,47.28,0,0,0,3.84-9l3.14-13,.13-.49a4.32,4.32,0,0,1,.61.22c.67.21,1.64.55,2.44.79C346,356.07,351.12,366.9,351.12,366.9Z" transform="translate(-14.33 73.96)" fill="#68e1fd"></path><path d="M351.12,366.9A20.49,20.49,0,0,1,346,375a8.61,8.61,0,0,1-2.26,3.12c-3.69,3-11,1.64-9.27-.95a47.28,47.28,0,0,0,3.84-9l3.14-13,.13-.49a4.32,4.32,0,0,1,.61.22c.67.21,1.64.55,2.44.79C346,356.07,351.12,366.9,351.12,366.9Z" transform="translate(-14.33 73.96)" fill="url(#linear-gradient-8)"></path><path d="M342.18,354.82a4.32,4.32,0,0,0-.61-.22l.06-.24A3.62,3.62,0,0,1,342.18,354.82Z" transform="translate(-14.33 73.96)" fill="#b3d8dc"></path><path d="M335.59,360s3.32,6.4,2.19,9.78-1.51,6.3,1.43,5.89,4.49-5.38,4.59-7.44-.76-8.81-3.3-11.16" transform="translate(-14.33 73.96)" fill="#c8a59c"></path><path d="M324.24,267.42s3.29-.46,3.86,8.93-12,41.36-12,41.36a419.4,419.4,0,0,1,25.58,36.66s.38,5.08-5.6,6.66c0,0-35.46-34.53-37.58-38.47s0-51.49,0-51.49S310.86,277.74,324.24,267.42Z" transform="translate(-14.33 73.96)" fill="#606161"></path><path d="M324.24,267.42s3.29-.46,3.86,8.93-12,41.36-12,41.36a419.4,419.4,0,0,1,25.58,36.66s.38,5.08-5.6,6.66c0,0-35.46-34.53-37.58-38.47s0-51.49,0-51.49S310.86,277.74,324.24,267.42Z" transform="translate(-14.33 73.96)" fill="url(#linear-gradient-9)"></path><path d="M286.53,367.51l-.49.27.36-.52A1.05,1.05,0,0,0,286.53,367.51Z" transform="translate(-14.33 73.96)" fill="#b3d8dc"></path><path d="M284.15,382.86a28.49,28.49,0,0,1-10.59,1.89,9.87,9.87,0,0,1-4.06.52c-4.7-.64-8.73-6.81-5.68-7.39a74.93,74.93,0,0,0,10.62-3.48l11.6-6.62.49-.27c0,.09.12.27.21.46.3.67.73,1.64,1.1,2.44C288.45,371.69,284.15,382.86,284.15,382.86Z" transform="translate(-14.33 73.96)" fill="#68e1fd"></path><path d="M284.15,382.86a28.49,28.49,0,0,1-10.59,1.89,9.87,9.87,0,0,1-4.06.52c-4.7-.64-8.73-6.81-5.68-7.39a74.93,74.93,0,0,0,10.62-3.48l11.6-6.62.49-.27c0,.09.12.27.21.46.3.67.73,1.64,1.1,2.44C288.45,371.69,284.15,382.86,284.15,382.86Z" transform="translate(-14.33 73.96)" fill="url(#linear-gradient-10)"></path><path d="M286.74,368c-.09-.19-.18-.37-.21-.46l.18-.12A3.51,3.51,0,0,1,286.74,368Z" transform="translate(-14.33 73.96)" fill="#b3d8dc"></path><path d="M278.49,366.83s-6.87,7.78-10.1,9.28-2.56,2.37-.24,4.21,8.44-.52,10-1.87,5.86-6.61,5.83-10.07" transform="translate(-14.33 73.96)" fill="#c8a59c"></path><path d="M324.27,277.41s-.61,5-7,11.91-21.49,34.27-21.49,34.27a418.45,418.45,0,0,1-9,43.78s-3.43,3.77-8.69.52c0,0,2-45.88,3.43-50.13s15.17-44.43,15.17-44.43S307.57,274.79,324.27,277.41Z" transform="translate(-14.33 73.96)" fill="#606161"></path><path d="M324.27,277.41s-.61,5-7,11.91-21.49,34.27-21.49,34.27a418.45,418.45,0,0,1-9,43.78s-3.43,3.77-8.69.52c0,0,2-45.88,3.43-50.13s15.17-44.43,15.17-44.43S307.57,274.79,324.27,277.41Z" transform="translate(-14.33 73.96)" fill="url(#linear-gradient-11)"></path><path d="M299.12,274.05a19.71,19.71,0,0,0,6.48,5.15c4.38,2.26,12.3,2.78,15.61,1.86s6.36-8.29,6.36-8.29S301.61,274.76,299.12,274.05Z" transform="translate(-14.33 73.96)" fill="#f2fbff"></path><path d="M321.17,207.34a15,15,0,0,1,6.35,8.78c1.36,5.84-2.7,31.07-.81,49.93.75,7.47.86,7.67.86,7.67s-21,2.86-30.95-.39c.77,1.27,1.53-27.41-.1-43.87-.9-9.11,8.39-22.39,8.39-22.39S313.08,204.53,321.17,207.34Z" transform="translate(-14.33 73.96)" fill="#93c6c9"></path><path d="M326.71,266.06c.75,7.46.87,7.66.87,7.66s-2.89.39-7,.72l-1.62.12c-2.43.16-5.17.3-8,.32h-1.63c-1.68,0-3.34-.08-4.95-.19-.55-.05-1.09-.1-1.63-.17a28.76,28.76,0,0,1-6.09-1.17c.74-.94,1.4-28.07-.16-43.88-.9-9.13,8.38-22.41,8.38-22.41s.32-.1.9-.24,1-.23,1.7-.35a34.34,34.34,0,0,1,5.08-.46c.53,0,1.06,0,1.62,0a23.91,23.91,0,0,1,6.74,1.22,1,1,0,0,1,.23.07,11.4,11.4,0,0,1,1.26.91,14.79,14.79,0,0,1,5.07,7.87C328.88,222,324.82,247.18,326.71,266.06Z" transform="translate(-14.33 73.96)" fill="#68e1fd"></path><path d="M304.41,274.69c-.55-.05-1.09-.1-1.63-.17a240.64,240.64,0,0,1,3-67.7c.44-.1,1-.23,1.7-.35A238.08,238.08,0,0,0,304.41,274.69Z" transform="translate(-14.33 73.96)" fill="url(#linear-gradient-12)"></path><path d="M311,274.88h-1.63A297,297,0,0,1,312.59,206c.53,0,1.06,0,1.62,0A293.29,293.29,0,0,0,311,274.88Z" transform="translate(-14.33 73.96)" fill="url(#linear-gradient-13)"></path><path d="M320.57,274.44l-1.62.12a255.4,255.4,0,0,1,2-67.29,1,1,0,0,1,.23.07,11.4,11.4,0,0,1,1.26.91A251.33,251.33,0,0,0,320.57,274.44Z" transform="translate(-14.33 73.96)" fill="url(#linear-gradient-14)"></path><polygon points="289.96 280.56 287.05 282.6 288.24 286.14 290.02 282.27 289.96 280.56" fill="#e4f4f6"></polygon><path d="M316.84,194.93l2.22,11.61s-12,3-14.53,2.71L304,203.2" transform="translate(-14.33 73.96)" fill="#c8a59c"></path><path d="M316.81,195.19a.88.88,0,0,1,.05-.15l0-.11L304,203.2l.3,3.4c.28-.08.43-1.11.73-1.22C307.17,204.61,314.43,202.12,316.81,195.19Z" transform="translate(-14.33 73.96)" fill="#b69188"></path><path d="M318.63,203.66,320,207s-12.79,6.17-13.3,6.11-3.2-5.64-3.2-5.64Z" transform="translate(-14.33 73.96)" fill="#f2fbff"></path><path d="M321,183.59c-1.07-3.94-4.38-8.67-12.52-9.63-5.83-.7-8.4.76-8.85,2.51a3.27,3.27,0,0,0-.59,1.36l-.18-1.2c-.26,3.28-1.23,12.1-1.14,17.11s2.08,10.19,5.74,9.93,12.36-5.83,14.24-8.19S322.05,187.53,321,183.59Z" transform="translate(-14.33 73.96)" fill="#c8a59c"></path><path d="M316.86,210.35l18.25,73.71a14.94,14.94,0,0,0,5.94,1.54c3,0,4.34-4,4.34-4s-14.67-66.71-19.53-71.22S316.7,207.55,316.86,210.35Z" transform="translate(-14.33 73.96)" fill="#68e1fd"></path><path d="M326.3,248.47l-5.17-21.75s-.48,26.8-.86,31.57c-1.32,16.27,7.3,14.48,7.3,14.48l-.86-22.64" transform="translate(-14.33 73.96)" fill="url(#linear-gradient-15)"></path><path d="M307,171.29s-6.32.41-8,2.93c-1.95,3,.52,4.27,3.08,5.05,7.26,2.22,4.27,10.12,8,14.77,3.94,4.88,4.34,7.62,3.45,13.62-.85,5.78,3.42,11.7,9.06,13.23s12-1.07,15.44-5.81c1.32-1.81,2.27-4.15,1.58-6.29-.95-3-4.49-4.18-6.75-6.36a9.11,9.11,0,0,1-2.71-7.4c.3-2.94,2-6.08.54-8.65-1.08-1.89-3.42-2.55-5.41-3.42-4-1.78-3.71-6.24-6.68-9.11C315.56,170.83,311.11,170.51,307,171.29Z" transform="translate(-14.33 73.96)" fill="#606161"></path><path d="M331.86,226.44a30,30,0,0,0-9.31,6.9l-.45-1.87a31.26,31.26,0,0,1,9.3-6.61C331.56,225.37,331.7,225.91,331.86,226.44Z" transform="translate(-14.33 73.96)" fill="url(#linear-gradient-16)"></path><path d="M335,238.21a48,48,0,0,0-9.8,6l-.42-1.71a50.25,50.25,0,0,1,9.82-5.83C334.77,237.16,334.91,237.67,335,238.21Z" transform="translate(-14.33 73.96)" fill="url(#linear-gradient-17)"></path><path d="M338.2,250.76a32.8,32.8,0,0,0-10,5.23l-.42-1.7a35.64,35.64,0,0,1,10.08-5.12C337.94,249.7,338.07,250.23,338.2,250.76Z" transform="translate(-14.33 73.96)" fill="url(#linear-gradient-18)"></path><path d="M340.86,261.77a81.61,81.61,0,0,0-10,5.26l-.4-1.65a82,82,0,0,1,10-5.19C340.6,260.73,340.73,261.24,340.86,261.77Z" transform="translate(-14.33 73.96)" fill="url(#linear-gradient-19)"></path><path d="M343.57,273.48a81.83,81.83,0,0,0-10,4.38l-.4-1.61a78.39,78.39,0,0,1,10-4.34C343.33,272.46,343.46,273,343.57,273.48Z" transform="translate(-14.33 73.96)" fill="url(#linear-gradient-20)"></path><path d="M276.36,256.45c1.23,3.23,2,10-3.81,12.48a7.1,7.1,0,0,1-2.5.58h-.12a5.31,5.31,0,0,1-2.54-.64,8.56,8.56,0,0,1-4.48-7.75l0-.25,0-.24L277.52,161a1.52,1.52,0,0,1,2.2-1.13,1.51,1.51,0,0,1,.82,1.59L266,260.84a5.76,5.76,0,0,0,2.9,5.34,2.07,2.07,0,0,0,1.4.22,2.83,2.83,0,0,0,1.07-.28c4.64-2,2.29-8.3,2.2-8.57a1.54,1.54,0,0,1,.88-2,1.51,1.51,0,0,1,1.22.1A1.3,1.3,0,0,1,276.36,256.45Z" transform="translate(-14.33 73.96)" fill="#68e1fd"></path><path d="M276.36,256.45c1.23,3.23,2,10-3.81,12.48a7.1,7.1,0,0,1-2.5.58,6.13,6.13,0,0,1-1.59-.55,8.41,8.41,0,0,1-4.45-7.75L264,261l0-.25,14.61-99.65a1.06,1.06,0,1,1,2,.34L266,260.84a5.76,5.76,0,0,0,2.9,5.34,2.07,2.07,0,0,0,1.4.22,2.57,2.57,0,0,0,2.17-.19c4.61-1.95,2.26-8.3,2.17-8.57a1.49,1.49,0,0,1,.88-1.95.27.27,0,0,1,.15,0A1.3,1.3,0,0,1,276.36,256.45Z" transform="translate(-14.33 73.96)" fill="url(#linear-gradient-21)"></path><path d="M242.57,160.57s18.47-4.71,28.16,4.21c0,0,10.76-5.88,28,1.4,0,0,17.53-5.05,45.47,9.47,0,0-3.19-33.68-48.49-48.61s-84.78,24.66-84.78,24.66S232,149.88,242.57,160.57Z" transform="translate(-14.33 73.96)" fill="#68e1fd"></path><path d="M295,126.81c-24.47,3.54-41.62,19.92-51.93,33.65a4.78,4.78,0,0,1-.49.12C232,149.87,211,151.7,211,151.7S250,112.53,295,126.81Z" transform="translate(-14.33 73.96)" fill="url(#linear-gradient-22)"></path><path d="M344.22,175.66c-14.46-7.51-26.15-9.8-34.05-10.26-.73-10.55-4.24-23.34-13.39-37.65-.09-.18-.22-.3-.31-.45,20.54,6.92,32.28,17.72,39,27.36C343.31,166,344.22,175.66,344.22,175.66Z" transform="translate(-14.33 73.96)" fill="url(#linear-gradient-23)"></path><path d="M310.17,165.4c-7.35-.39-11.44.77-11.44.77a6.66,6.66,0,0,0-1-.37,40.49,40.49,0,0,0-18.91-3.11,23.14,23.14,0,0,0-8.12,2.1c-8.73-8.08-24.68-5-27.67-4.33a100.5,100.5,0,0,1,16-17c9.46-8,21.42-14.59,36-16.69a7.38,7.38,0,0,1,.73.21c.27.09.52.18.76.28.09.15.22.27.31.45C305.93,142.06,309.44,154.85,310.17,165.4Z" transform="translate(-14.33 73.96)" fill="url(#linear-gradient-24)"></path><path d="M271.12,219.35a1.37,1.37,0,0,0-1-.48,1,1,0,0,0-.74,1.09,4.52,4.52,0,0,0,.43,1.38,10.77,10.77,0,0,1,.45,4,5.1,5.1,0,0,0,.55,2.87c.05.09.14.19.24.19a.27.27,0,0,0,.18-.05,1.86,1.86,0,0,0,.67-1.28,22.74,22.74,0,0,0,.48-4.36,5.44,5.44,0,0,0-.09-1.89A4.72,4.72,0,0,0,271.12,219.35Z" transform="translate(-14.33 73.96)" fill="#c8a59c"></path><g clip-path="url(#clip-path)"><line x1="106.61" y1="158.68" x2="44.13" y2="347.92" fill="none" stroke="#fff" stroke-linecap="round" stroke-miterlimit="10" stroke-width="3.17" stroke-dasharray="11.93"></line><line x1="118.21" y1="163.15" x2="55.73" y2="352.38" fill="none" stroke="#fff" stroke-linecap="round" stroke-miterlimit="10" stroke-width="3.17" stroke-dasharray="11.93"></line><line x1="134.28" y1="148.87" x2="71.8" y2="338.1" fill="none" stroke="#fff" stroke-linecap="round" stroke-miterlimit="10" stroke-width="3.17" stroke-dasharray="11.93"></line><line x1="145.88" y1="153.33" x2="83.4" y2="342.56" fill="none" stroke="#fff" stroke-linecap="round" stroke-miterlimit="10" stroke-width="3.17" stroke-dasharray="11.93"></line><line x1="161.95" y1="139.05" x2="99.47" y2="328.28" fill="none" stroke="#fff" stroke-linecap="round" stroke-miterlimit="10" stroke-width="3.17" stroke-dasharray="11.93"></line><line x1="173.55" y1="143.51" x2="111.07" y2="332.74" fill="none" stroke="#fff" stroke-linecap="round" stroke-miterlimit="10" stroke-width="3.17" stroke-dasharray="11.93"></line><line x1="189.62" y1="129.23" x2="127.14" y2="318.46" fill="none" stroke="#fff" stroke-linecap="round" stroke-miterlimit="10" stroke-width="3.17" stroke-dasharray="11.93"></line><line x1="201.22" y1="133.69" x2="138.74" y2="322.92" fill="none" stroke="#fff" stroke-linecap="round" stroke-miterlimit="10" stroke-width="3.17" stroke-dasharray="11.93"></line><line x1="217.29" y1="119.41" x2="154.81" y2="308.64" fill="none" stroke="#fff" stroke-linecap="round" stroke-miterlimit="10" stroke-width="3.17" stroke-dasharray="11.93"></line><line x1="244.96" y1="109.59" x2="182.48" y2="298.82" fill="none" stroke="#fff" stroke-linecap="round" stroke-miterlimit="10" stroke-width="3.17" stroke-dasharray="11.93"></line><line x1="256.57" y1="114.05" x2="194.08" y2="303.29" fill="none" stroke="#fff" stroke-linecap="round" stroke-miterlimit="10" stroke-width="3.17" stroke-dasharray="11.93"></line><line x1="272.63" y1="99.77" x2="210.15" y2="289.01" fill="none" stroke="#fff" stroke-linecap="round" stroke-miterlimit="10" stroke-width="3.17" stroke-dasharray="11.93"></line><line x1="284.24" y1="104.24" x2="221.75" y2="293.47" fill="none" stroke="#fff" stroke-linecap="round" stroke-miterlimit="10" stroke-width="3.17" stroke-dasharray="11.93"></line><line x1="300.3" y1="89.95" x2="237.82" y2="279.19" fill="none" stroke="#fff" stroke-linecap="round" stroke-miterlimit="10" stroke-width="3.17" stroke-dasharray="11.93"></line><line x1="311.91" y1="94.42" x2="249.43" y2="283.65" fill="none" stroke="#fff" stroke-linecap="round" stroke-miterlimit="10" stroke-width="3.17" stroke-dasharray="11.93"></line><line x1="327.97" y1="80.13" x2="265.49" y2="269.37" fill="none" stroke="#fff" stroke-linecap="round" stroke-miterlimit="10" stroke-width="3.17" stroke-dasharray="11.93"></line><line x1="339.58" y1="84.6" x2="277.1" y2="273.83" fill="none" stroke="#fff" stroke-linecap="round" stroke-miterlimit="10" stroke-width="3.17" stroke-dasharray="11.93"></line><line x1="355.65" y1="70.32" x2="293.16" y2="259.55" fill="none" stroke="#fff" stroke-linecap="round" stroke-miterlimit="10" stroke-width="3.17" stroke-dasharray="11.93"></line><line x1="367.25" y1="74.78" x2="304.77" y2="264.01" fill="none" stroke="#fff" stroke-linecap="round" stroke-miterlimit="10" stroke-width="3.17" stroke-dasharray="11.93"></line><line x1="383.32" y1="60.5" x2="320.83" y2="249.73" fill="none" stroke="#fff" stroke-linecap="round" stroke-miterlimit="10" stroke-width="3.17" stroke-dasharray="11.93"></line><line x1="394.92" y1="64.96" x2="332.44" y2="254.19" fill="none" stroke="#fff" stroke-linecap="round" stroke-miterlimit="10" stroke-width="3.17" stroke-dasharray="11.93"></line><line x1="410.99" y1="50.68" x2="348.5" y2="239.91" fill="none" stroke="#fff" stroke-linecap="round" stroke-miterlimit="10" stroke-width="3.17" stroke-dasharray="11.93"></line><line x1="422.59" y1="55.14" x2="360.11" y2="244.37" fill="none" stroke="#fff" stroke-linecap="round" stroke-miterlimit="10" stroke-width="3.17" stroke-dasharray="11.93"></line><line x1="438.66" y1="40.86" x2="376.18" y2="230.09" fill="none" stroke="#fff" stroke-linecap="round" stroke-miterlimit="10" stroke-width="3.17" stroke-dasharray="11.93"></line><line x1="450.26" y1="45.32" x2="387.78" y2="234.56" fill="none" stroke="#fff" stroke-linecap="round" stroke-miterlimit="10" stroke-width="3.17" stroke-dasharray="11.93"></line><line x1="466.33" y1="31.04" x2="403.85" y2="220.27" fill="none" stroke="#fff" stroke-linecap="round" stroke-miterlimit="10" stroke-width="3.17" stroke-dasharray="11.93"></line><line x1="477.93" y1="35.5" x2="415.45" y2="224.74" fill="none" stroke="#fff" stroke-linecap="round" stroke-miterlimit="10" stroke-width="3.17" stroke-dasharray="11.93"></line><line x1="494" y1="21.22" x2="431.52" y2="210.46" fill="none" stroke="#fff" stroke-linecap="round" stroke-miterlimit="10" stroke-width="3.17" stroke-dasharray="11.93"></line><line x1="505.6" y1="25.69" x2="443.12" y2="214.92" fill="none" stroke="#fff" stroke-linecap="round" stroke-miterlimit="10" stroke-width="3.17" stroke-dasharray="11.93"></line><line x1="521.67" y1="11.4" x2="459.19" y2="200.64" fill="none" stroke="#fff" stroke-linecap="round" stroke-miterlimit="10" stroke-width="3.17" stroke-dasharray="11.93"></line><line x1="533.27" y1="15.87" x2="470.79" y2="205.1" fill="none" stroke="#fff" stroke-linecap="round" stroke-miterlimit="10" stroke-width="3.17" stroke-dasharray="11.93"></line><line x1="549.34" y1="1.59" x2="486.86" y2="190.82" fill="none" stroke="#fff" stroke-linecap="round" stroke-miterlimit="10" stroke-width="3.17" stroke-dasharray="11.93"></line><line x1="560.95" y1="6.05" x2="498.46" y2="195.28" fill="none" stroke="#fff" stroke-linecap="round" stroke-miterlimit="10" stroke-width="3.17" stroke-dasharray="11.93"></line><line x1="69.12" y1="349.26" x2="6.64" y2="538.49" fill="none" stroke="#fff" stroke-linecap="round" stroke-miterlimit="10" stroke-width="3.17" stroke-dasharray="11.93"></line><line x1="80.72" y1="353.72" x2="18.24" y2="542.95" fill="none" stroke="#fff" stroke-linecap="round" stroke-miterlimit="10" stroke-width="3.17" stroke-dasharray="11.93"></line><line x1="96.79" y1="339.44" x2="34.31" y2="528.67" fill="none" stroke="#fff" stroke-linecap="round" stroke-miterlimit="10" stroke-width="3.17" stroke-dasharray="11.93"></line><line x1="108.39" y1="343.9" x2="45.91" y2="533.13" fill="none" stroke="#fff" stroke-linecap="round" stroke-miterlimit="10" stroke-width="3.17" stroke-dasharray="11.93"></line><line x1="124.46" y1="329.62" x2="61.98" y2="518.85" fill="none" stroke="#fff" stroke-linecap="round" stroke-miterlimit="10" stroke-width="3.17" stroke-dasharray="11.93"></line><line x1="136.06" y1="334.08" x2="73.58" y2="523.32" fill="none" stroke="#fff" stroke-linecap="round" stroke-miterlimit="10" stroke-width="3.17" stroke-dasharray="11.93"></line><line x1="152.13" y1="319.8" x2="89.65" y2="509.03" fill="none" stroke="#fff" stroke-linecap="round" stroke-miterlimit="10" stroke-width="3.17" stroke-dasharray="11.93"></line><line x1="163.73" y1="324.26" x2="101.25" y2="513.5" fill="none" stroke="#fff" stroke-linecap="round" stroke-miterlimit="10" stroke-width="3.17" stroke-dasharray="11.93"></line><line x1="179.8" y1="309.98" x2="117.32" y2="499.21" fill="none" stroke="#fff" stroke-linecap="round" stroke-miterlimit="10" stroke-width="3.17" stroke-dasharray="11.93"></line><line x1="191.41" y1="314.44" x2="128.92" y2="503.68" fill="none" stroke="#fff" stroke-linecap="round" stroke-miterlimit="10" stroke-width="3.17" stroke-dasharray="11.93"></line><line x1="207.47" y1="300.16" x2="144.99" y2="489.4" fill="none" stroke="#fff" stroke-linecap="round" stroke-miterlimit="10" stroke-width="3.17" stroke-dasharray="11.93"></line><line x1="219.08" y1="304.63" x2="156.59" y2="493.86" fill="none" stroke="#fff" stroke-linecap="round" stroke-miterlimit="10" stroke-width="3.17" stroke-dasharray="11.93"></line><line x1="235.14" y1="290.34" x2="172.66" y2="479.58" fill="none" stroke="#fff" stroke-linecap="round" stroke-miterlimit="10" stroke-width="3.17" stroke-dasharray="11.93"></line><line x1="246.75" y1="294.81" x2="184.26" y2="484.04" fill="none" stroke="#fff" stroke-linecap="round" stroke-miterlimit="10" stroke-width="3.17" stroke-dasharray="11.93"></line><line x1="262.81" y1="280.53" x2="200.33" y2="469.76" fill="none" stroke="#fff" stroke-linecap="round" stroke-miterlimit="10" stroke-width="3.17" stroke-dasharray="11.93"></line><line x1="274.42" y1="284.99" x2="211.94" y2="474.22" fill="none" stroke="#fff" stroke-linecap="round" stroke-miterlimit="10" stroke-width="3.17" stroke-dasharray="11.93"></line><line x1="290.49" y1="270.71" x2="228" y2="459.94" fill="none" stroke="#fff" stroke-linecap="round" stroke-miterlimit="10" stroke-width="3.17" stroke-dasharray="11.93"></line><line x1="302.09" y1="275.17" x2="239.61" y2="464.4" fill="none" stroke="#fff" stroke-linecap="round" stroke-miterlimit="10" stroke-width="3.17" stroke-dasharray="11.93"></line><line x1="318.16" y1="260.89" x2="255.67" y2="450.12" fill="none" stroke="#fff" stroke-linecap="round" stroke-miterlimit="10" stroke-width="3.17" stroke-dasharray="11.93"></line><line x1="329.76" y1="265.35" x2="267.28" y2="454.58" fill="none" stroke="#fff" stroke-linecap="round" stroke-miterlimit="10" stroke-width="3.17" stroke-dasharray="11.93"></line><line x1="345.83" y1="251.07" x2="283.34" y2="440.3" fill="none" stroke="#fff" stroke-linecap="round" stroke-miterlimit="10" stroke-width="3.17" stroke-dasharray="11.93"></line><line x1="357.43" y1="255.53" x2="294.95" y2="444.77" fill="none" stroke="#fff" stroke-linecap="round" stroke-miterlimit="10" stroke-width="3.17" stroke-dasharray="11.93"></line><line x1="373.5" y1="241.25" x2="311.02" y2="430.48" fill="none" stroke="#fff" stroke-linecap="round" stroke-miterlimit="10" stroke-width="3.17" stroke-dasharray="11.93"></line><line x1="385.1" y1="245.71" x2="322.62" y2="434.95" fill="none" stroke="#fff" stroke-linecap="round" stroke-miterlimit="10" stroke-width="3.17" stroke-dasharray="11.93"></line><line x1="401.17" y1="231.43" x2="338.69" y2="420.67" fill="none" stroke="#fff" stroke-linecap="round" stroke-miterlimit="10" stroke-width="3.17" stroke-dasharray="11.93"></line><line x1="412.77" y1="235.89" x2="350.29" y2="425.13" fill="none" stroke="#fff" stroke-linecap="round" stroke-miterlimit="10" stroke-width="3.17" stroke-dasharray="11.93"></line><line x1="428.84" y1="221.61" x2="359.51" y2="431.82" fill="none" stroke="#fff" stroke-linecap="round" stroke-miterlimit="10" stroke-width="3.17" stroke-dasharray="11.93"></line><line x1="440.44" y1="226.08" x2="368.44" y2="434.2" fill="none" stroke="#fff" stroke-linecap="round" stroke-miterlimit="10" stroke-width="3.17" stroke-dasharray="11.93"></line><line x1="456.51" y1="211.79" x2="378.56" y2="436.58" fill="none" stroke="#fff" stroke-linecap="round" stroke-miterlimit="10" stroke-width="3.17" stroke-dasharray="11.93"></line><line x1="468.11" y1="216.26" x2="388.08" y2="437.77" fill="none" stroke="#fff" stroke-linecap="round" stroke-miterlimit="10" stroke-width="3.17" stroke-dasharray="11.93"></line><line x1="484.18" y1="201.98" x2="401.17" y2="441.34" fill="none" stroke="#fff" stroke-linecap="round" stroke-miterlimit="10" stroke-width="3.17" stroke-dasharray="11.93"></line><line x1="495.79" y1="206.44" x2="419.62" y2="438.37" fill="none" stroke="#fff" stroke-linecap="round" stroke-miterlimit="10" stroke-width="3.17" stroke-dasharray="11.93"></line><line x1="511.85" y1="192.16" x2="436.87" y2="435.99" fill="none" stroke="#fff" stroke-linecap="round" stroke-miterlimit="10" stroke-width="3.17" stroke-dasharray="11.93"></line><line x1="515.72" y1="216.85" x2="444.61" y2="461.58" fill="none" stroke="#fff" stroke-linecap="round" stroke-miterlimit="10" stroke-width="3.17" stroke-dasharray="11.93"></line></g><path d="M421,373.08c-10.05-.25-20.42-1.08-29.85,2.38-3.65,1.34-7.62,4.37-6.88,8.19.51,2.66,3.15,4.33,5.63,5.42a41.36,41.36,0,0,0,8,2.6,10.9,10.9,0,0,1,4.36,1.51c1.21.9,1.92,2.29,2.9,3.44,3.3,3.86,9.22,4.33,14.11,3s9.24-4.21,14-6.05c17.66-6.89,39.46.35,55.39-9.92a5.09,5.09,0,0,0,2.17-2.21c1.19-3-2.82-5.25-6-5.88C463.14,371.2,442.92,373.63,421,373.08Z" transform="translate(-14.33 73.96)" fill="url(#linear-gradient-25)"></path><path d="M196.54,374.09c2.21,3.52-1.42,7.75-4.69,10.31L219.79,389a4.73,4.73,0,0,1,2.93,1.23c1,1.21.49,3.21-.73,4.22a7.89,7.89,0,0,1-4.48,1.41c-8.56.7-17-1.48-25.5-3-47.27-8.5-96.4,3.67-143.72-4.56-3.31-.57-6.8-1.34-9.24-3.66s-3.22-6.68-.74-8.95c1.95-1.78,4.92-1.59,7.55-1.33,29.38,3,58.35,2.13,87.79,1.12,8.52-.29,17-.36,25.54-1C166.32,374,192.16,367.12,196.54,374.09Z" transform="translate(-14.33 73.96)" fill="url(#linear-gradient-26)"></path><path d="M137.06,358.14c-1.68,0-3.61,2.91-5.45,6.87-3.52,7.45-6.81,18.65-7.64,21.12-3.36,10.14-6.21,20.67-11.76,29.89-9.89,16.46-28.88,31.83-48.35,33.73A42.5,42.5,0,0,1,46,447.6c-1.08-.92-2.19-1.87-3.23-2.85a3,3,0,0,1-.35-.29,86.66,86.66,0,0,1-6.94-7.26,90.87,90.87,0,0,1-15-24.66v0a38.49,38.49,0,0,1,2.6-8.75c8.12-19.08,26.44-32.2,46.22-38.74,1-.34,2-.66,3-.95C93.13,357.88,115.29,358,137.06,358.14Z" transform="translate(-14.33 73.96)" fill="#68e1fd"></path><path d="M137.06,358.14c-1.68,0-3.61,2.91-5.45,6.87-3.52,7.45-6.81,18.65-7.64,21.12-3.36,10.14-6.21,20.67-11.76,29.89-9.89,16.46-28.88,31.83-48.35,33.73A42.5,42.5,0,0,1,46,447.6c-1.08-.92-2.19-1.87-3.23-2.85a3,3,0,0,1-.35-.29,86.66,86.66,0,0,1-6.94-7.26,90.94,90.94,0,0,1-15-24.7,38.49,38.49,0,0,1,2.6-8.75c8.12-19.08,26.44-32.2,46.22-38.74,1-.34,2-.66,3-.95C93.13,357.88,115.29,358,137.06,358.14Z" transform="translate(-14.33 73.96)" fill="url(#linear-gradient-27)"></path><path d="M331.91,404c-1.85,0-4.37.82-4.07,2.65.23,1.39,2,1.84,3.39,2l28.86,2.86a8.23,8.23,0,0,0,3-.08,8,8,0,0,0,2.69-1.57c2-1.55,4.19-3.85,3.33-6.22-.92-2.55-4.52-2.69-7.07-1.77C352.8,405.23,341.72,403.82,331.91,404Z" transform="translate(-14.33 73.96)" fill="url(#linear-gradient-28)"></path><path d="M382.05,396.2c-2.11-.46-5-.46-5.6,1.62-.39,1.45.91,2.92,2.36,3.28a8.66,8.66,0,0,0,4.43-.49,3.76,3.76,0,0,0,2.19-1.26,2.54,2.54,0,0,0-.9-3.24,7.23,7.23,0,0,0-3.52-1" transform="translate(-14.33 73.96)" fill="url(#linear-gradient-29)"></path><path d="M211.28,396.65A175.09,175.09,0,0,0,189.18,426c-7,11.73-13.72,25.23-26.37,30.37,2.66-.76,5.32-1.52,8-2.31-8.72,11-21.37,17.27-35.13,20.54a157.34,157.34,0,0,1-24.47-.67C86,471.25,61,462,42.37,444.46a86.66,86.66,0,0,1-6.94-7.26c2.85-7.39,8.18-14.87,12.14-20.32,8.27-11.51,21.84-18.45,35.51-21.21,16.35-3.3,33.28-1.49,49.93-.28A686,686,0,0,0,211.28,396.65Z" transform="translate(-14.33 73.96)" fill="#68e1fd"></path><path d="M211.28,396.65A175.09,175.09,0,0,0,189.18,426c-7,11.73-13.72,25.23-26.37,30.37,2.66-.76,5.32-1.52,8-2.31-8.72,11-21.37,17.27-35.13,20.54a157.34,157.34,0,0,1-24.47-.67c-2.16-.22-4.28-.5-6.44-.85-17.37-2.63-34.36-8.5-49-18.17a95.62,95.62,0,0,1-13.41-10.46,86.66,86.66,0,0,1-6.94-7.26c2.85-7.39,8.18-14.87,12.14-20.32,8.27-11.51,21.84-18.45,35.51-21.21,16.35-3.3,33.28-1.49,49.93-.28A686,686,0,0,0,211.28,396.65Z" transform="translate(-14.33 73.96)" fill="url(#linear-gradient-30)"></path><path d="M149.41,402.55c1.8-.22,4.12-.34,4.91,1.3s-.88,3.51-2.46,4.56-3.45,2.53-3,4.38c.14.64.57,1.2.65,1.85.2,1.57-1.53,2.63-3,3.24l-11.32,4.79a85.59,85.59,0,0,1-11.69,4.27c-7,1.82-14.45,1.79-21.73,1.49-10-.4-20.11-1.32-29.23-5.33-1.43-.63-3-1.62-3.07-3.18a3.92,3.92,0,0,1,1.66-2.86c4.62-4,10.92-5.34,16.37-8.12,3.79-1.94,7.18-4.6,11-6.51,8.09-4,17.34-4.3,26.16-3.47C133.08,399.75,140.9,403.57,149.41,402.55Z" transform="translate(-14.33 73.96)" fill="url(#linear-gradient-31)"></path><path d="M150.19,392.82c-.67,2.72-2.57,5-4.53,7a52.92,52.92,0,0,1-12.56,9.36,4.43,4.43,0,0,1-1.23-1.05c-1.78-1.81-3.59-4.19-3-6.63a8.05,8.05,0,0,1,2.22-3.23c2.91-3.08,6.05-6.25,10.08-7.54a32.71,32.71,0,0,1,5.32-1.05,29.62,29.62,0,0,1,3.78-.86A9.49,9.49,0,0,1,150.19,392.82Z" transform="translate(-14.33 73.96)" fill="#68e1fd"></path><path d="M107,404.8a50.54,50.54,0,0,1-10.22.44,165.44,165.44,0,0,0,27.77,1.9c-.09,1.57-1.86,2.49-3.42,2.63s-3.2-.19-4.68.34a38.24,38.24,0,0,1,3.21,2.3,2.11,2.11,0,0,1,.81,1c.26.88-.7,1.72-1.62,1.74a5.77,5.77,0,0,1-2.58-.86,13.69,13.69,0,0,0-4.52-1.28,9.78,9.78,0,0,0,2.12,2.71c.75.88,1.28,2.21.63,3.16-.76,1.13-2.6.84-3.57-.11a15.93,15.93,0,0,1-2.11-3.46c-1.83-3-5.31-4.48-8.57-5.79l-9.06-3.62c-.7-.28-1.48-.65-1.66-1.37a1.67,1.67,0,0,1,1.11-1.8,6,6,0,0,1,2.27-.28,16.9,16.9,0,0,0,4.06-.55c.66-.17,1.47-.66,1.25-1.31a1.18,1.18,0,0,0-.5-.56,28.71,28.71,0,0,0-3.52-1.6,3.85,3.85,0,0,1-2.38-2.83c-.15-1.64,1.36-2.94,2.84-3.68a15.74,15.74,0,0,1,15,.72c1.52,1,2.77,2.31,4.32,3.25,2.64,1.6,4.2,2.72,1.25,5.27A17.3,17.3,0,0,1,107,404.8Z" transform="translate(-14.33 73.96)" fill="#68e1fd"></path><path d="M107,404.8a50.54,50.54,0,0,1-10.22.44,165.44,165.44,0,0,0,27.77,1.9c-.09,1.57-1.86,2.49-3.42,2.63s-3.2-.19-4.68.34a38.24,38.24,0,0,1,3.21,2.3,2.11,2.11,0,0,1,.81,1c.26.88-.7,1.72-1.62,1.74a5.77,5.77,0,0,1-2.58-.86,13.69,13.69,0,0,0-4.52-1.28,9.78,9.78,0,0,0,2.12,2.71c.75.88,1.28,2.21.63,3.16-.76,1.13-2.6.84-3.57-.11a15.93,15.93,0,0,1-2.11-3.46c-1.83-3-5.31-4.48-8.57-5.79l-9.06-3.62c-.7-.28-1.48-.65-1.66-1.37a1.67,1.67,0,0,1,1.11-1.8,6,6,0,0,1,2.27-.28,16.9,16.9,0,0,0,4.06-.55c.66-.17,1.47-.66,1.25-1.31a1.18,1.18,0,0,0-.5-.56,28.71,28.71,0,0,0-3.52-1.6,3.85,3.85,0,0,1-2.38-2.83c-.15-1.64,1.36-2.94,2.84-3.68a15.74,15.74,0,0,1,15,.72c1.52,1,2.77,2.31,4.32,3.25,2.64,1.6,4.2,2.72,1.25,5.27A17.3,17.3,0,0,1,107,404.8Z" transform="translate(-14.33 73.96)" fill="url(#linear-gradient-32)"></path><path d="M135.78,405.18a4.3,4.3,0,0,0,1.23,1.38,4.47,4.47,0,0,0,1.73.48l8.45,1.12c-.75,1.7-2.92,2.11-4.76,2.29a5.28,5.28,0,0,1,2.09,2.1,1.83,1.83,0,0,1-.89,2.49c-1.56.44-2.55-1.91-4.14-2.15a5.79,5.79,0,0,1,.2,2.91,2,2,0,0,1-2.17,1.55c-1.37-.33-1.48-2.19-1.6-3.6a15.21,15.21,0,0,0-3.73-8.07c-1.88-2.34-4.09-4.42-5.87-6.84a14.5,14.5,0,0,1-1.91-3.36c-.45-1.21-.58-2.79.45-3.57,2.89-2.22,4.55,2.51,5.47,4.19Q132.87,400.75,135.78,405.18Z" transform="translate(-14.33 73.96)" fill="#68e1fd"></path><path d="M135.78,405.18a4.3,4.3,0,0,0,1.23,1.38,4.47,4.47,0,0,0,1.73.48l8.45,1.12c-.75,1.7-2.92,2.11-4.76,2.29a5.28,5.28,0,0,1,2.09,2.1,1.83,1.83,0,0,1-.89,2.49c-1.56.44-2.55-1.91-4.14-2.15a5.79,5.79,0,0,1,.2,2.91,2,2,0,0,1-2.17,1.55c-1.37-.33-1.48-2.19-1.6-3.6a15.21,15.21,0,0,0-3.73-8.07c-1.88-2.34-4.09-4.42-5.87-6.84a14.5,14.5,0,0,1-1.91-3.36c-.45-1.21-.58-2.79.45-3.57,2.89-2.22,4.55,2.51,5.47,4.19Q132.87,400.75,135.78,405.18Z" transform="translate(-14.33 73.96)" fill="url(#linear-gradient-33)"></path><path d="M81.09,394.14a4.42,4.42,0,0,1,1.5-2.65c4-4.31,8.41-8.83,14.16-10.06a41.48,41.48,0,0,1,7.8-.43,6.31,6.31,0,0,0,3.33-.72,6.75,6.75,0,0,0,2.12-2.92,37.86,37.86,0,0,1,4.63-8,12.47,12.47,0,0,1,7.74-4.74,14.35,14.35,0,0,1,5.13.42,63.25,63.25,0,0,1,8.08,2.69l12.83,4.92a6.92,6.92,0,0,1,1.82.92,4.25,4.25,0,0,1,1.42,2.35c.68,2.85-1,5.7-2.81,8-8.48,10.69-21.25,16.89-33.57,22.75a58.24,58.24,0,0,1-7.34,3.1c-6.87,2.18-14.28,1.76-21.44,1-2.58-.29-5.29-.67-7.35-2.25s-3.12-4.77-1.56-6.84" transform="translate(-14.33 73.96)" fill="#68e1fd"></path><path d="M149.85,382.5c-.32.48-.66.94-1,1.4-8.47,10.68-21.24,16.9-33.56,22.74a57.23,57.23,0,0,1-7.36,3.09,38.09,38.09,0,0,1-11.45,1.6h0a80.64,80.64,0,0,1-9.94-.63c-2.6-.28-5.29-.65-7.36-2.26s-3.12-4.75-1.57-6.81l3.52-7.48a4.27,4.27,0,0,1,1.49-2.66c4-4.3,8.42-8.82,14.18-10.05a38.83,38.83,0,0,1,7.78-.43,6.57,6.57,0,0,0,3.33-.72,1.42,1.42,0,0,0,.28-.23,7.06,7.06,0,0,0,1.84-2.72,39.19,39.19,0,0,1,4.63-8,12.44,12.44,0,0,1,7.74-4.73,14.71,14.71,0,0,1,5.12.4,68.17,68.17,0,0,1,8.11,2.69c3.72,1.46,7.47,2.9,11.22,4.3.55.23,1.06.43,1.61.63a7.08,7.08,0,0,1,1.8.91,4.27,4.27,0,0,1,1.43,2.35C152.2,378.17,151.22,380.46,149.85,382.5Z" transform="translate(-14.33 73.96)" fill="url(#linear-gradient-34)"></path><path d="M149.85,382.5c-.32.48-.66.94-1,1.4-8.47,10.68-21.24,16.9-33.56,22.74a57.23,57.23,0,0,1-7.36,3.09,38.09,38.09,0,0,1-11.45,1.6s0,0,0,0a8.08,8.08,0,0,1-2.66-1,4.79,4.79,0,0,1-2.41-4.89c.63-2.64,3.81-3.67,6.5-3.93,2.26-.17,4.5-.14,6.76-.31,13.09-.95,24.6-8.56,35.77-15.46,2.2-1.38,5.78-3.93,8.56-3.5A2.45,2.45,0,0,1,149.85,382.5Z" transform="translate(-14.33 73.96)" fill="url(#linear-gradient-35)"></path><path d="M94.06,414a49.76,49.76,0,0,1-10.21.44,164.2,164.2,0,0,0,27.76,1.9c-.09,1.57-1.86,2.5-3.42,2.63s-3.2-.18-4.68.34a38.24,38.24,0,0,1,3.21,2.3,2.11,2.11,0,0,1,.81,1c.26.88-.7,1.72-1.62,1.75a5.91,5.91,0,0,1-2.58-.87,13.69,13.69,0,0,0-4.52-1.28,9.63,9.63,0,0,0,2.12,2.71c.75.88,1.28,2.21.63,3.17-.76,1.12-2.6.84-3.57-.11a16.66,16.66,0,0,1-2.11-3.47c-1.83-3-5.31-4.48-8.57-5.78l-9.06-3.62c-.7-.28-1.48-.65-1.66-1.38a1.68,1.68,0,0,1,1.11-1.8,6,6,0,0,1,2.27-.27,17.41,17.41,0,0,0,4.06-.55c.66-.18,1.47-.67,1.25-1.32a1.16,1.16,0,0,0-.5-.55,27.84,27.84,0,0,0-3.51-1.61,3.83,3.83,0,0,1-2.39-2.82c-.15-1.65,1.36-2.95,2.84-3.69a15.74,15.74,0,0,1,15,.73c1.52,1,2.77,2.3,4.32,3.25,2.64,1.6,4.2,2.71,1.25,5.27A17.34,17.34,0,0,1,94.06,414Z" transform="translate(-14.33 73.96)" fill="#68e1fd"></path><path d="M94.06,414a49.76,49.76,0,0,1-10.21.44,164.2,164.2,0,0,0,27.76,1.9c-.09,1.57-1.86,2.5-3.42,2.63s-3.2-.18-4.68.34a38.24,38.24,0,0,1,3.21,2.3,2.11,2.11,0,0,1,.81,1c.26.88-.7,1.72-1.62,1.75a5.91,5.91,0,0,1-2.58-.87,13.69,13.69,0,0,0-4.52-1.28,9.63,9.63,0,0,0,2.12,2.71c.75.88,1.28,2.21.63,3.17-.76,1.12-2.6.84-3.57-.11a16.66,16.66,0,0,1-2.11-3.47c-1.83-3-5.31-4.48-8.57-5.78l-9.06-3.62c-.7-.28-1.48-.65-1.66-1.38a1.68,1.68,0,0,1,1.11-1.8,6,6,0,0,1,2.27-.27,17.41,17.41,0,0,0,4.06-.55c.66-.18,1.47-.67,1.25-1.32a1.16,1.16,0,0,0-.5-.55,27.84,27.84,0,0,0-3.51-1.61,3.83,3.83,0,0,1-2.39-2.82c-.15-1.65,1.36-2.95,2.84-3.69a15.74,15.74,0,0,1,15,.73c1.52,1,2.77,2.3,4.32,3.25,2.64,1.6,4.2,2.71,1.25,5.27A17.34,17.34,0,0,1,94.06,414Z" transform="translate(-14.33 73.96)" fill="url(#linear-gradient-36)"></path><path d="M126.76,411.69a4.19,4.19,0,0,0,1.23,1.38,4.47,4.47,0,0,0,1.73.48l8.45,1.12c-.75,1.7-2.92,2.11-4.76,2.29a5.43,5.43,0,0,1,2.1,2.1,1.85,1.85,0,0,1-.9,2.49c-1.55.44-2.55-1.91-4.14-2.15a5.79,5.79,0,0,1,.2,2.91,2,2,0,0,1-2.17,1.55c-1.37-.33-1.48-2.19-1.6-3.6a15.24,15.24,0,0,0-3.72-8.06c-1.89-2.35-4.1-4.43-5.88-6.85a14.5,14.5,0,0,1-1.91-3.36c-.45-1.21-.58-2.79.45-3.57,2.89-2.22,4.55,2.51,5.47,4.19Q123.85,407.26,126.76,411.69Z" transform="translate(-14.33 73.96)" fill="#68e1fd"></path><path d="M126.76,411.69a4.19,4.19,0,0,0,1.23,1.38,4.47,4.47,0,0,0,1.73.48l8.45,1.12c-.75,1.7-2.92,2.11-4.76,2.29a5.43,5.43,0,0,1,2.1,2.1,1.85,1.85,0,0,1-.9,2.49c-1.55.44-2.55-1.91-4.14-2.15a5.79,5.79,0,0,1,.2,2.91,2,2,0,0,1-2.17,1.55c-1.37-.33-1.48-2.19-1.6-3.6a15.24,15.24,0,0,0-3.72-8.06c-1.89-2.35-4.1-4.43-5.88-6.85a14.5,14.5,0,0,1-1.91-3.36c-.45-1.21-.58-2.79.45-3.57,2.89-2.22,4.55,2.51,5.47,4.19Q123.85,407.26,126.76,411.69Z" transform="translate(-14.33 73.96)" fill="url(#linear-gradient-37)"></path><path d="M190.13,409c-16.54,11-24.69,30.91-39.21,44.41-11,10.21-25.49,16.36-40.33,18.87-1.93.31-3.86.6-5.8.79-17.37-2.63-34.36-8.5-49-18.17,2.47-4.4,6.69-8.49,9.23-11.41a110.61,110.61,0,0,1,21-19.37c14.81-10.05,32.69-14.84,50.51-16.42S172.29,407.59,190.13,409Z" transform="translate(-14.33 73.96)" fill="url(#linear-gradient-38)"></path></svg>