<svg xmlns="http://www.w3.org/2000/svg" xmlns:xlink="http://www.w3.org/1999/xlink" viewBox="0 0 400 300" width="406" height="306" class="illustration styles_illustrationTablet__1DWOa"><defs><radialGradient id="radial-gradient" cx="179.65" cy="103.64" r="7.68" gradientUnits="userSpaceOnUse"><stop offset="0" stop-color="#fcee21"></stop><stop offset="1" stop-color="#ffc745"></stop></radialGradient><radialGradient id="radial-gradient-2" cx="185.56" cy="136.22" r="7.25" xlink:href="#radial-gradient"></radialGradient><radialGradient id="radial-gradient-3" cx="202.83" cy="159.11" r="7.82" xlink:href="#radial-gradient"></radialGradient><radialGradient id="radial-gradient-4" cx="229.14" cy="169.24" r="8.51" xlink:href="#radial-gradient"></radialGradient><radialGradient id="radial-gradient-5" cx="185.71" cy="76.25" r="8.97" xlink:href="#radial-gradient"></radialGradient><radialGradient id="radial-gradient-6" cx="249.85" cy="160.38" r="8.97" xlink:href="#radial-gradient"></radialGradient><radialGradient id="radial-gradient-7" cx="206.42" cy="67.4" r="8.51" xlink:href="#radial-gradient"></radialGradient><radialGradient id="radial-gradient-8" cx="221.55" cy="123.09" r="38.22" xlink:href="#radial-gradient"></radialGradient><radialGradient id="radial-gradient-9" cx="232.73" cy="77.52" r="7.82" xlink:href="#radial-gradient"></radialGradient><radialGradient id="radial-gradient-10" cx="250" cy="100.41" r="7.25" xlink:href="#radial-gradient"></radialGradient><radialGradient id="radial-gradient-11" cx="256.93" cy="132" r="7.68" xlink:href="#radial-gradient"></radialGradient><linearGradient id="linear-gradient" x1="104.48" y1="135.88" x2="62.83" y2="176.03" gradientUnits="userSpaceOnUse"><stop offset="0" stop-color="#78b46a"></stop><stop offset="0.03" stop-color="#7f3500"></stop><stop offset="1" stop-color="#fff"></stop></linearGradient><linearGradient id="linear-gradient-2" x1="329.59" y1="165.83" x2="287.93" y2="205.98" gradientUnits="userSpaceOnUse"><stop offset="0.14" stop-color="#833b08"></stop><stop offset="1" stop-color="#fff"></stop></linearGradient></defs><title>ZZZ</title><g style="isolation: isolate;"><g id="Layer_2" data-name="Layer 2"><path d="M195.27,275.09l-165.77-98c-5.28-3-9.8-7.83-4.66-11L191.21,70.22c2.5-1.55,6.29-2.56,8.82-1.09l174,101c5.28,3.06,6.22,11.63.94,14.69L217.13,274.93A22,22,0,0,1,195.27,275.09Z" fill="#68e1fd"></path><path d="M171.92,97.75l14.62-7.1a2.27,2.27,0,0,1,1.8,0L200.29,95l.08,0-14.62,7.1-.08,0-11.95-4.31A2.27,2.27,0,0,0,171.92,97.75Z" fill="#db893e"></path><path d="M202,102.42l-14.62,7.1c2.13-1,1.62-6.18-1.63-7.43L200.37,95C203.62,96.25,204.12,101.39,202,102.42Z" fill="#db893e"></path><path d="M188.59,129.93l14.62-7.1a2.2,2.2,0,0,1,1.81-.06l-14.62,7.1A2.2,2.2,0,0,0,188.59,129.93Z" fill="#db893e"></path><path d="M197.15,135.41l-14.62,7.1.09,0,9.61-5.19c2.62-1.41.71-6.42-1.84-7.4l14.62-7.1c2.54,1,4.46,6,1.84,7.4l-9.61,5.19Z" fill="#db893e"></path><path d="M203.5,149.78l14.62-7.1a2.17,2.17,0,0,1,1.75,0l-14.62,7.1A2.17,2.17,0,0,0,203.5,149.78Z" fill="#db893e"></path><path d="M216.77,161.34l-14.62,7.1a2.23,2.23,0,0,0,1-1.17l5-11.24c1.09-2.47-.92-5.46-2.93-6.24l14.62-7.1c2,.77,4,3.77,2.93,6.24l-5,11.24A2.23,2.23,0,0,1,216.77,161.34Z" fill="#db893e"></path><path d="M180,66l14.62-7.1a2.35,2.35,0,0,1,1.9-.05L181.88,66A2.35,2.35,0,0,0,180,66Z" fill="#db893e"></path><path d="M225.9,158.3l14.62-7.1a2.71,2.71,0,0,1,2.15,0l-14.62,7.1A2.71,2.71,0,0,0,225.9,158.3Z" fill="#db893e"></path><path d="M247,173.08l-14.62,7.1c.91-.44,1.48-1.54,1.16-3.33q-1.33-7.4-2.67-14.8a4.78,4.78,0,0,0-2.81-3.75l14.62-7.1a4.78,4.78,0,0,1,2.81,3.75q1.33,7.41,2.67,14.8C248.48,171.54,247.91,172.63,247,173.08Z" fill="#db893e"></path><path d="M206.07,79.36l-14.62,7.1c1.43-.69,2.16-2.88.63-5.36l-8.15-13.22A4.38,4.38,0,0,0,181.88,66l14.62-7.1a4.38,4.38,0,0,1,2.06,1.89L206.7,74C208.23,76.48,207.49,78.67,206.07,79.36Z" fill="#db893e"></path><path d="M244.11,150.17l14.62-7.1a2.35,2.35,0,0,1,1.9-.05L246,150.12A2.35,2.35,0,0,0,244.11,150.17Z" fill="#db893e"></path><path d="M270.21,163.5l-14.62,7.1c1.43-.69,2.16-2.89.63-5.37L248.07,152a4.38,4.38,0,0,0-2.06-1.89l14.62-7.1a4.38,4.38,0,0,1,2.06,1.89l8.15,13.21C272.37,160.61,271.63,162.8,270.21,163.5Z" fill="#db893e"></path><path d="M203.45,87.75l14.62-7.1c4.49-2.18,10-2.38,15.87-.11l-14.62,7.1C213.43,85.37,207.93,85.57,203.45,87.75Z" fill="#db893e"></path><path d="M203.18,56.46l14.62-7.1a2.71,2.71,0,0,1,2.15,0l-14.62,7.1A2.71,2.71,0,0,0,203.18,56.46Z" fill="#db893e"></path><path d="M224.28,71.23l-14.62,7.1c.91-.44,1.48-1.54,1.16-3.33q-1.33-7.4-2.67-14.8a4.78,4.78,0,0,0-2.81-3.76l14.62-7.1a4.78,4.78,0,0,1,2.81,3.76q1.33,7.4,2.67,14.8C225.76,69.69,225.19,70.79,224.28,71.23Z" fill="#db893e"></path><path d="M247.94,142.25l-14.62,7.1c6.55-3.18,10.95-10.58,11.25-20.71.51-17.07-10.8-35.43-25.26-41l14.62-7.1c14.47,5.57,25.78,23.92,25.26,41C258.89,131.66,254.49,139.06,247.94,142.25Z" fill="#db893e"></path><path d="M233.4,68.2,248,61.1a2.17,2.17,0,0,1,1.75,0l-14.62,7.1A2.17,2.17,0,0,0,233.4,68.2Z" fill="#db893e"></path><path d="M246.68,79.75l-14.62,7.1a2.24,2.24,0,0,0,1-1.17l5-11.24c1.09-2.46-.91-5.46-2.92-6.23l14.62-7.1c2,.77,4,3.77,2.92,6.23l-5,11.24A2.24,2.24,0,0,1,246.68,79.75Z" fill="#db893e"></path><path d="M253,94.12,267.64,87a2.2,2.2,0,0,1,1.81-.06l-14.62,7.1A2.2,2.2,0,0,0,253,94.12Z" fill="#db893e"></path><path d="M261.59,99.59,247,106.69l.09,0,9.6-5.18c2.62-1.41.71-6.42-1.84-7.4L269.45,87c2.54,1,4.46,6,1.84,7.4l-9.6,5.18Z" fill="#db893e"></path><path d="M249.21,126.11l14.62-7.1a2.27,2.27,0,0,1,1.8,0l11.95,4.31.08,0L263,130.46l-.08,0L251,126.12A2.27,2.27,0,0,0,249.21,126.11Z" fill="#db893e"></path><path d="M279.28,130.78l-14.62,7.1c2.13-1,1.62-6.18-1.63-7.43l14.62-7.1C280.9,124.6,281.41,129.75,279.28,130.78Z" fill="#db893e"></path><path d="M185.75,102.1c4,1.53,3.84,8.86-.17,7.42l-11.95-4.31-.08,0c-4-1.53-3.84-8.86.17-7.42l11.95,4.31Z" fill="url(#radial-gradient)"></path><path d="M190.4,129.88c2.54,1,4.46,6,1.84,7.4l-9.61,5.19a2.2,2.2,0,0,1-1.89.1c-2.54-1-4.46-6-1.84-7.4L188.5,130A2.2,2.2,0,0,1,190.4,129.88Z" fill="url(#radial-gradient-2)"></path><path d="M205.25,149.79c2,.77,4,3.77,2.93,6.24l-5,11.24a2,2,0,0,1-2.78,1.16c-2-.77-4-3.77-2.92-6.23q2.49-5.62,5-11.24A2,2,0,0,1,205.25,149.79Z" fill="url(#radial-gradient-3)"></path><path d="M228.05,158.29a4.78,4.78,0,0,1,2.81,3.75q1.33,7.41,2.67,14.8c.55,3-1.43,4.06-3.3,3.34a4.78,4.78,0,0,1-2.81-3.76q-1.33-7.4-2.68-14.8C224.2,158.62,226.18,157.57,228.05,158.29Z" fill="url(#radial-gradient-4)"></path><path d="M181.88,66a4.38,4.38,0,0,1,2.06,1.89l8.15,13.22c2.13,3.45-.13,6.34-2.54,5.41a4.38,4.38,0,0,1-2.06-1.89l-8.14-13.21C177.21,67.95,179.47,65.06,181.88,66Z" fill="url(#radial-gradient-5)"></path><path d="M246,150.12a4.38,4.38,0,0,1,2.06,1.89l8.15,13.21c2.13,3.46-.13,6.35-2.53,5.43a4.38,4.38,0,0,1-2.06-1.89l-8.15-13.22C241.35,152.08,243.61,149.19,246,150.12Z" fill="url(#radial-gradient-6)"></path><path d="M205.33,56.45a4.78,4.78,0,0,1,2.81,3.76q1.33,7.4,2.67,14.8c.55,3-1.44,4.06-3.31,3.34a4.78,4.78,0,0,1-2.81-3.75q-1.33-7.41-2.68-14.81C201.48,56.78,203.46,55.73,205.33,56.45Z" fill="url(#radial-gradient-7)"></path><path d="M219.31,87.64c14.47,5.57,25.78,23.92,25.26,41s-12.66,26.4-27.12,20.83-25.78-23.92-25.26-41S204.85,82.07,219.31,87.64Z" fill="url(#radial-gradient-8)"></path><path d="M235.15,68.21c2,.77,4,3.77,2.92,6.23l-5,11.24a2,2,0,0,1-2.78,1.16c-2-.77-4-3.77-2.92-6.24q2.5-5.61,5-11.24A2,2,0,0,1,235.15,68.21Z" fill="url(#radial-gradient-9)"></path><path d="M254.83,94.07c2.54,1,4.46,6,1.84,7.4l-9.6,5.18a2.2,2.2,0,0,1-1.9.1c-2.54-1-4.45-6-1.83-7.39l9.6-5.19A2.2,2.2,0,0,1,254.83,94.07Z" fill="url(#radial-gradient-10)"></path><path d="M263,130.46c4,1.53,3.84,8.86-.17,7.42l-11.95-4.31-.08,0c-4-1.53-3.84-8.86.17-7.42L263,130.43Z" fill="url(#radial-gradient-11)"></path><g opacity="0.82"><path d="M168.4,186.11c5.36,3.14,8.19,6.5,9,10.24l-10.26,1.34a13,13,0,0,0-5.87-7.13c-2.13-1.25-4-1.28-5.1-.57-1.46,1-1,2,2.45,5.19,5.75,5.24,8,9.36,2.4,13.09-6.24,4.13-15,3.57-22.65-.92-5.59-3.27-9.23-7.5-9.8-12l10.41-.83c.75,3.39,3,6.24,6.63,8.38,2.34,1.37,4.38,1.6,5.67.75s1-1.95-2.35-5.07c-5.25-4.9-8.64-9.13-2.45-13.23C152.14,181.64,160.82,181.68,168.4,186.11Z" fill="#606060"></path><polygon points="250 234.48 219.91 254.41 212.25 249.93 215.27 231.11 198.77 242.04 190.11 236.98 220.19 217.04 228.35 221.82 225.44 239.95 241.34 229.41 250 234.48" fill="#606060"></polygon><path d="M215,214l-16.68,11.05c-9.71,6.43-19.79,5.85-28.76.6s-10.27-11.43-.86-17.66l16.89-11.19,8.89,5.2-16.72,11.08c-4.34,2.87-4.1,5.59-.59,7.65s7.79,2.09,12-.7L206.1,208.8Z" fill="#606060"></path></g><path d="M33.74,169.64l73.61-22,8.76,11.39L76.34,194Z" opacity="0.46" fill="url(#linear-gradient)" style="mix-blend-mode: multiply;"></path><polyline points="101.44 46.76 105.77 13.91 105.77 43.59" fill="#6a9546"></polyline><path d="M96.08,20.93c12.46,7.08,8,31.48,6.61,38-.23,1-.38,1.61-.38,1.61" fill="#6a9546"></path><path d="M81.6,26.44l18.64,16-.46-12.15s1.38-10-8.86-11S81.6,26.44,81.6,26.44Z" fill="#6a9546"></path><path d="M104.79,161.33a13.22,13.22,0,0,1-8.87-5c5.91-37.07,1.84-107.94,1.84-107.94l5-.66c9.67,27.81,12.38,98.34,12.83,112.35C112.52,161.71,108.21,161.83,104.79,161.33Z" fill="#d8876a"></path><path d="M127.6,20.82c15.32-.68,25.32,16.29,25.32,16.29L103,56.15l-2.07-12.37" fill="#85b23b"></path><path d="M104.63,41.17s7.66-19.68,23-20.35" fill="#85b23b"></path><path d="M156.89,52.71q-2.69,0-5.38.12l-3.44-6.74,1.32,6.81c-4.89.18-9.77.43-14.65.71l-4.4.27a19.53,19.53,0,0,0-2-5.84c-.21-.29-.05,3,.13,6a143.68,143.68,0,0,0-25.5,3.8l.85-2.59S107,39.7,133.18,33.66s42.66,19.67,42.66,19.67l-.52.05C169.26,52.39,163.05,52.62,156.89,52.71Z" fill="#6a9546"></path><path d="M96.08,20.93c-14.42-8.2-19,8.49-19,8.49" fill="#6a9546"></path><path d="M103,56.15s3.58-12.82-14-25.66-37.19-1.36-37.19-1.36L64,38.86l8.9-3.61-4.94,6.46,10.34,6.94S85,44.2,87.15,43c.5-.28-4.57,8.13-4.57,8.13l19.73,9.45Z" fill="#85b23b"></path><path d="M91,59.65l-.61-5.72-1.65,6.28c-5.11,1.32-10.15,2.87-15.21,4.52l-1.41-5-.41,5.61c-2.73.89-5.45,1.77-8.11,2.74l-1-6.23-1,7a53.42,53.42,0,0,0-9.33,4.6c-1-13.32,12.58-29.19,27.41-31.16,15-2,23.35,13.89,23.35,13.89l-3.93,1.8C96.35,58.42,93.66,59,91,59.65Z" fill="#6a9546"></path><path d="M131.77,63.58l.8-3.11-1.33,2.91A111.79,111.79,0,0,0,120,60l.19-3.89-1.32,3.61a141.77,141.77,0,0,0-16.43-2.87C103.48,55.14,108,49,119.35,47c12.44-2.24,22.92,12.12,23.17,20.8L141,67.56A95.34,95.34,0,0,0,131.77,63.58Z" fill="#85b23b"></path><path d="M258.85,199.59l73.61-22L341.22,189l-39.78,34.88Z" opacity="0.46" fill="url(#linear-gradient-2)" style="mix-blend-mode: multiply;"></path><polyline points="330.12 102.17 333.49 76.64 333.49 99.71" fill="#6a9546"></polyline><path d="M326,82.09c9.69,5.51,6.26,24.48,5.14,29.55-.18.8-.29,1.25-.29,1.25" fill="#6a9546"></path><path d="M314.7,86.38l14.49,12.47-.35-9.45s1.07-7.76-6.89-8.58S314.7,86.38,314.7,86.38Z" fill="#6a9546"></path><path d="M332.73,191.26a10.28,10.28,0,0,1-6.9-3.9c4.59-28.83,1.43-83.93,1.43-83.93l3.9-.51c7.52,21.63,9.63,76.47,10,87.36C338.74,191.56,335.39,191.66,332.73,191.26Z" fill="#d8876a"></path><path d="M350.47,82c11.91-.53,19.69,12.66,19.69,12.66l-38.82,14.81-1.61-9.61" fill="#85b23b"></path><path d="M332.6,97.83s6-15.3,17.87-15.83" fill="#85b23b"></path><path d="M373.24,106.8q-2.09,0-4.18.09l-2.68-5.24,1,5.3c-3.8.14-7.6.34-11.39.55l-3.42.21a15.19,15.19,0,0,0-1.58-4.54c-.16-.22,0,2.3.1,4.64a111.72,111.72,0,0,0-19.83,3l.66-2S334.45,96.69,354.81,92,388,107.29,388,107.29l-.4,0C382.86,106.56,378,106.74,373.24,106.8Z" fill="#6a9546"></path><path d="M326,82.09c-11.22-6.38-14.78,6.6-14.78,6.6" fill="#6a9546"></path><path d="M331.34,109.48s2.78-10-10.88-20-28.92-1.06-28.92-1.06L301,96l6.92-2.8-3.84,5,8,5.39s5.19-3.46,6.9-4.42c.39-.22-3.55,6.32-3.55,6.32l15.34,7.35Z" fill="#85b23b"></path><path d="M322,112.2l-.48-4.44-1.28,4.89c-4,1-7.89,2.23-11.83,3.51l-1.1-3.9-.32,4.36c-2.12.69-4.24,1.38-6.31,2.13l-.82-4.85-.74,5.43a41.54,41.54,0,0,0-7.26,3.58c-.78-10.36,9.78-22.7,21.31-24.23,11.7-1.56,18.15,10.8,18.15,10.8l-3.05,1.4C326.17,111.25,324.08,111.7,322,112.2Z" fill="#6a9546"></path><path d="M353.71,115.25l.62-2.41-1,2.27a86.93,86.93,0,0,0-8.75-2.66l.14-3-1,2.81A110.24,110.24,0,0,0,330.89,110c.82-1.31,4.34-6.05,13.16-7.64,9.67-1.74,17.82,9.42,18,16.17l-1.17-.18A74.13,74.13,0,0,0,353.71,115.25Z" fill="#85b23b"></path></g></g></svg>